HIERARCHY
ROOT CG
{
	OFFSET 0.000000 0.000000 27.772259
	CHANNELS 6 Xposition Yposition Zposition Xrotation Yrotation Zrotation
	JOINT Pelvis
	{
		OFFSET 0.000000 0.000000 0.000000
		CHANNELS 3 Xrotation Yrotation Zrotation
		JOINT Spine
		{
			OFFSET -0.000017 -10.490843 -0.495483
			CHANNELS 3 Xrotation Yrotation Zrotation
			JOINT Spine1
			{
				OFFSET -0.000010 -22.678980 0.018061
				CHANNELS 3 Xrotation Yrotation Zrotation
				JOINT Spine2
				{
					OFFSET -0.000010 -22.678967 0.018061
					CHANNELS 3 Xrotation Yrotation Zrotation
					JOINT Spine3
					{
						OFFSET -0.000010 -22.678982 0.018059
						CHANNELS 3 Xrotation Yrotation Zrotation
						JOINT Neck
						{
							OFFSET -0.000012 -22.678986 -1.289251
							CHANNELS 3 Xrotation Yrotation Zrotation
							JOINT Neck1
							{
								OFFSET -0.000007 -16.255905 0.012947
								CHANNELS 3 Xrotation Yrotation Zrotation
								JOINT Head
								{
									OFFSET -0.000005 -10.784607 -0.287502
									CHANNELS 3 Xrotation Yrotation Zrotation
									JOINT Jaw01
									{
										OFFSET 0.000031 7.782959 5.073944
										CHANNELS 3 Xrotation Yrotation Zrotation
										JOINT Jaw02
										{
											OFFSET 0.000004 -34.927139 -18.883980
											CHANNELS 3 Xrotation Yrotation Zrotation
											End Site
											{
												OFFSET -0.000170 8.372803 -38.812450
											}
										}
									}
									JOINT Nose
									{
										OFFSET -0.000002 -25.700912 7.222265
										CHANNELS 3 Xrotation Yrotation Zrotation
										End Site
										{
											OFFSET -0.000090 0.641281 -21.715439
										}
									}
									JOINT L_EyeSocket
									{
										OFFSET 7.352326 -19.832718 14.164183
										CHANNELS 3 Xrotation Yrotation Zrotation
										JOINT L_Eye
										{
											OFFSET -0.000868 -0.001053 0.016003
											CHANNELS 3 Xrotation Yrotation Zrotation
											End Site
											{
												OFFSET -0.001505 -0.001846 0.027969
											}
										}
										JOINT L_Eyelid_Top
										{
											OFFSET -0.001004 -0.002625 0.032516
											CHANNELS 3 Xrotation Yrotation Zrotation
											End Site
											{
												OFFSET -0.013218 0.005753 0.024086
											}
										}
										JOINT L_Eyelid_Bottom
										{
											OFFSET -0.001194 -0.002777 0.035381
											CHANNELS 3 Xrotation Yrotation Zrotation
											End Site
											{
												OFFSET -0.010032 0.008636 -0.024754
											}
										}
									}
									JOINT R_EyeSocket
									{
										OFFSET -7.352252 -19.832748 14.164206
										CHANNELS 3 Xrotation Yrotation Zrotation
										JOINT R_Eye
										{
											OFFSET 0.000875 -0.001068 0.015991
											CHANNELS 3 Xrotation Yrotation Zrotation
											End Site
											{
												OFFSET 0.001505 -0.001846 0.027962
											}
										}
										JOINT R_Eyelid_Top
										{
											OFFSET 0.001021 -0.002625 0.032516
											CHANNELS 3 Xrotation Yrotation Zrotation
											End Site
											{
												OFFSET 0.013214 0.005753 0.024078
											}
										}
										JOINT R_Eyelid_Bottom
										{
											OFFSET 0.001170 -0.002762 0.035366
											CHANNELS 3 Xrotation Yrotation Zrotation
											End Site
											{
												OFFSET 0.010029 0.008636 -0.024746
											}
										}
									}
								}
								JOINT Neck_Fat
								{
									OFFSET 0.000044 -9.595100 -17.491512
									CHANNELS 3 Xrotation Yrotation Zrotation
									End Site
									{
										OFFSET -0.000036 15.369423 -0.000007
									}
								}
							}
						}
						JOINT L_Clavicle
						{
							OFFSET 4.567107 -11.666092 -3.750029
							CHANNELS 3 Xrotation Yrotation Zrotation
							JOINT L_UpperArm
							{
								OFFSET 20.725666 -0.000053 -0.000032
								CHANNELS 3 Xrotation Yrotation Zrotation
								JOINT L_Forearm
								{
									OFFSET 5.265112 -0.585754 -20.155697
									CHANNELS 3 Xrotation Yrotation Zrotation
									JOINT L_Hand
									{
										OFFSET 2.653017 -10.877708 -16.383667
										CHANNELS 3 Xrotation Yrotation Zrotation
										JOINT L_Finger0
										{
											OFFSET -4.206146 -4.328911 -5.034346
											CHANNELS 3 Xrotation Yrotation Zrotation
											JOINT L_Finger01
											{
												OFFSET 0.084272 -1.788536 -4.181065
												CHANNELS 3 Xrotation Yrotation Zrotation
												End Site
												{
													OFFSET 3.261885 3.094673 -0.685818
												}
											}
										}
										JOINT L_Finger1
										{
											OFFSET -1.039112 -6.775742 -3.499998
											CHANNELS 3 Xrotation Yrotation Zrotation
											JOINT L_Finger11
											{
												OFFSET 1.320335 -3.040672 -6.425793
												CHANNELS 3 Xrotation Yrotation Zrotation
												End Site
												{
													OFFSET -1.244579 6.832077 -2.013330
												}
											}
										}
										JOINT L_Finger2
										{
											OFFSET 2.531296 -5.656487 -3.286415
											CHANNELS 3 Xrotation Yrotation Zrotation
											JOINT L_Finger21
											{
												OFFSET 1.991665 -2.402016 -5.957748
												CHANNELS 3 Xrotation Yrotation Zrotation
												End Site
												{
													OFFSET -2.793068 5.800873 -1.944178
												}
											}
										}
										JOINT L_Finger3
										{
											OFFSET 5.474075 -3.302338 -2.655975
											CHANNELS 3 Xrotation Yrotation Zrotation
											JOINT L_Finger31
											{
												OFFSET 2.026943 -1.267532 -5.961166
												CHANNELS 3 Xrotation Yrotation Zrotation
												End Site
												{
													OFFSET -4.375172 4.343658 -1.800320
												}
											}
										}
										JOINT L_Finger4
										{
											OFFSET 4.825745 1.085899 -2.321970
											CHANNELS 3 Xrotation Yrotation Zrotation
											JOINT L_Finger41
											{
												OFFSET 3.358261 -1.829651 -3.744434
												CHANNELS 3 Xrotation Yrotation Zrotation
												End Site
												{
													OFFSET -3.843296 2.955200 -2.267633
												}
											}
										}
									}
								}
							}
						}
						JOINT R_Clavicle
						{
							OFFSET -4.567111 -11.666092 -3.750036
							CHANNELS 3 Xrotation Yrotation Zrotation
							JOINT R_UpperArm
							{
								OFFSET -20.725670 -0.000031 0.000038
								CHANNELS 3 Xrotation Yrotation Zrotation
								JOINT R_Forearm
								{
									OFFSET -5.265285 -0.585762 -20.155655
									CHANNELS 3 Xrotation Yrotation Zrotation
									JOINT R_Hand
									{
										OFFSET -2.653147 -10.877739 -16.383663
										CHANNELS 3 Xrotation Yrotation Zrotation
										JOINT R_Finger0
										{
											OFFSET 4.206116 -4.328888 -5.034388
											CHANNELS 3 Xrotation Yrotation Zrotation
											JOINT R_Finger01
											{
												OFFSET -0.084324 -1.788544 -4.181051
												CHANNELS 3 Xrotation Yrotation Zrotation
												End Site
												{
													OFFSET -3.261890 3.094666 -0.685791
												}
											}
										}
										JOINT R_Finger1
										{
											OFFSET 1.039101 -6.775711 -3.499994
											CHANNELS 3 Xrotation Yrotation Zrotation
											JOINT R_Finger11
											{
												OFFSET -1.320374 -3.040672 -6.425779
												CHANNELS 3 Xrotation Yrotation Zrotation
												End Site
												{
													OFFSET 1.244556 6.832077 -2.013342
												}
											}
										}
										JOINT R_Finger2
										{
											OFFSET -2.531307 -5.656464 -3.286409
											CHANNELS 3 Xrotation Yrotation Zrotation
											JOINT R_Finger21
											{
												OFFSET -1.991707 -2.402016 -5.957708
												CHANNELS 3 Xrotation Yrotation Zrotation
												End Site
												{
													OFFSET 2.793037 5.800858 -1.944197
												}
											}
										}
										JOINT R_Finger3
										{
											OFFSET -5.474091 -3.302330 -2.655947
											CHANNELS 3 Xrotation Yrotation Zrotation
											JOINT R_Finger31
											{
												OFFSET -2.026993 -1.267532 -5.961157
												CHANNELS 3 Xrotation Yrotation Zrotation
												End Site
												{
													OFFSET 4.375156 4.343674 -1.800358
												}
											}
										}
										JOINT R_Finger4
										{
											OFFSET -4.825756 1.085922 -2.321926
											CHANNELS 3 Xrotation Yrotation Zrotation
											JOINT R_Finger41
											{
												OFFSET -3.358307 -1.829651 -3.744390
												CHANNELS 3 Xrotation Yrotation Zrotation
												End Site
												{
													OFFSET 3.843273 2.955208 -2.267666
												}
											}
										}
									}
								}
							}
						}
					}
				}
			}
		}
		JOINT Tail01
		{
			OFFSET -0.000010 10.922326 -0.017508
			CHANNELS 3 Xrotation Yrotation Zrotation
			JOINT Tail02
			{
				OFFSET -0.000022 21.986111 0.000013
				CHANNELS 3 Xrotation Yrotation Zrotation
				JOINT Tail03
				{
					OFFSET -0.000022 21.986118 0.000002
					CHANNELS 3 Xrotation Yrotation Zrotation
					JOINT Tail04
					{
						OFFSET -0.000022 21.986122 0.000004
						CHANNELS 3 Xrotation Yrotation Zrotation
						JOINT Tail05
						{
							OFFSET -0.000022 21.986099 0.000010
							CHANNELS 3 Xrotation Yrotation Zrotation
							JOINT Tail06
							{
								OFFSET -0.000022 21.986099 0.000006
								CHANNELS 3 Xrotation Yrotation Zrotation
								JOINT Tail07
								{
									OFFSET -0.000022 21.986099 0.000000
									CHANNELS 3 Xrotation Yrotation Zrotation
									JOINT Tail08
									{
										OFFSET -0.000022 21.984848 0.000050
										CHANNELS 3 Xrotation Yrotation Zrotation
										JOINT Tail09
										{
											OFFSET -0.000025 21.926025 -1.606211
											CHANNELS 3 Xrotation Yrotation Zrotation
											JOINT Tail10
											{
												OFFSET -0.000027 21.750092 -3.203882
												CHANNELS 3 Xrotation Yrotation Zrotation
												End Site
												{
													OFFSET -0.000036 4.767395 21.461668
												}
											}
										}
									}
								}
							}
						}
					}
				}
			}
		}
		JOINT L_Thigh
		{
			OFFSET 24.788780 0.000021 -0.000034
			CHANNELS 3 Xrotation Yrotation Zrotation
			JOINT L_Calf
			{
				OFFSET 4.720837 4.161326 -21.049969
				CHANNELS 3 Xrotation Yrotation Zrotation
				JOINT L_Foot
				{
					OFFSET 2.154160 21.114433 -11.949743
					CHANNELS 3 Xrotation Yrotation Zrotation
					JOINT L_Toe0
					{
						OFFSET 4.557564 9.251841 -8.735286
						CHANNELS 3 Xrotation Yrotation Zrotation
						End Site
						{
							OFFSET 4.555542 -12.646044 1.018752
						}
					}
					JOINT L_Toe1
					{
						OFFSET 2.346291 5.845602 -11.687160
						CHANNELS 3 Xrotation Yrotation Zrotation
						End Site
						{
							OFFSET 5.347954 -12.298279 1.365644
						}
					}
					JOINT L_Toe2
					{
						OFFSET -0.356020 3.902458 -12.541145
						CHANNELS 3 Xrotation Yrotation Zrotation
						End Site
						{
							OFFSET 3.916235 -12.806129 1.542549
						}
					}
					JOINT L_Toe3
					{
						OFFSET -4.603447 3.183935 -12.435249
						CHANNELS 3 Xrotation Yrotation Zrotation
						End Site
						{
							OFFSET 3.810858 -12.587427 2.957583
						}
					}
					JOINT L_Toe4
					{
						OFFSET -7.144358 6.231495 -10.072764
						CHANNELS 3 Xrotation Yrotation Zrotation
						End Site
						{
							OFFSET 3.810858 -12.587425 2.957585
						}
					}
				}
			}
		}
		JOINT R_Thigh
		{
			OFFSET -24.788780 -0.000024 0.000034
			CHANNELS 3 Xrotation Yrotation Zrotation
			JOINT R_Calf
			{
				OFFSET -4.720922 4.161324 -21.049952
				CHANNELS 3 Xrotation Yrotation Zrotation
				JOINT R_Foot
				{
					OFFSET -2.154238 21.114414 -11.949730
					CHANNELS 3 Xrotation Yrotation Zrotation
					JOINT R_Toe0
					{
						OFFSET -4.557598 9.251823 -8.735270
						CHANNELS 3 Xrotation Yrotation Zrotation
						End Site
						{
							OFFSET -4.555508 -12.646051 1.018756
						}
					}
					JOINT R_Toe1
					{
						OFFSET -2.346325 5.845589 -11.687157
						CHANNELS 3 Xrotation Yrotation Zrotation
						End Site
						{
							OFFSET -5.347919 -12.298286 1.365654
						}
					}
					JOINT R_Toe2
					{
						OFFSET 0.355980 3.902462 -12.541145
						CHANNELS 3 Xrotation Yrotation Zrotation
						End Site
						{
							OFFSET -3.916199 -12.806131 1.542559
						}
					}
					JOINT R_Toe3
					{
						OFFSET 4.603411 3.183941 -12.435266
						CHANNELS 3 Xrotation Yrotation Zrotation
						End Site
						{
							OFFSET -3.810825 -12.587429 2.957591
						}
					}
					JOINT R_Toe4
					{
						OFFSET 7.144323 6.231503 -10.072779
						CHANNELS 3 Xrotation Yrotation Zrotation
						End Site
						{
							OFFSET -3.810825 -12.587433 2.957584
						}
					}
				}
			}
		}
	}
}
MOTION
Frames: 4
Frame Time: 0.033333
0.000000 0.000000 52.000000 0.000000 -0.000000 0.000072 -8.842944 -0.000088 0.000007 10.961080 0.000007 0.000018 2.118162 -0.000001 0.000003 4.876472 -0.000002 0.000004 -2.163954 0.000002 -0.000003 -6.986525 0.000003 -0.000007 -13.013541 0.000008 -0.000015 14.417327 -0.000016 -0.000007 -11.537027 -0.000053 0.000048 0.000010 0.000000 -0.000000 0.000020 -0.000000 -0.000000 -0.000004 0.000007 -0.000015 0.000112 -0.000069 0.000010 0.000001 -0.000005 -0.000003 0.000010 0.000005 0.000011 0.000001 0.000000 -0.000003 0.000110 0.000069 -0.000007 0.000002 -0.000002 0.000002 0.000003 -0.000007 -0.000001 -0.000000 -0.000000 -0.000000 -0.000878 4.114583 11.904650 26.136743 -13.607928 -29.332435 -23.413243 4.857625 -5.359929 -64.573250 -13.413033 -14.628607 4.814246 45.237873 32.496814 0.108392 -0.103822 0.046717 31.239885 13.715134 -10.715220 -21.103495 -3.971334 -2.962972 30.256522 6.344420 -6.448664 -32.343282 -14.390351 -8.157531 20.872339 -11.244809 -8.185808 -18.722430 -18.085390 -5.094119 18.635515 -29.682660 -0.393823 0.555238 0.804617 0.101800 -0.000907 -4.114893 -11.904634 1.174982 14.107489 33.206249 -12.983116 -2.414556 3.207785 -53.408855 5.511502 0.401868 4.813893 -45.237815 -32.497121 0.108396 0.103819 -0.046711 31.239929 -13.715162 10.714979 -21.103471 3.971280 2.963137 30.256570 -6.344445 6.448430 -32.343309 14.390252 8.157748 20.872416 11.244832 8.185625 -18.722465 18.085330 5.094264 18.635550 29.682660 0.393681 0.555248 -0.804611 -0.101804 -12.821442 -0.000008 0.000031 -8.690513 -1.231629 3.950023 3.161190 -0.094087 6.906286 4.342274 0.211174 -4.986125 9.929245 0.155903 -8.800337 11.171296 -0.659984 -13.999298 7.586498 -2.233522 -19.604714 5.550222 -3.327186 -18.537026 0.316509 -1.087826 -13.264620 -1.993396 1.870467 -10.063435 -27.408832 -10.892108 11.838816 -10.432369 -0.073223 -2.410097 -27.253807 -19.732186 -8.454190 -2.318591 -4.298942 -0.446771 8.087298 0.872400 0.413577 17.133832 6.636275 3.687459 20.253541 6.370514 -9.434374 -1.696108 7.323588 -8.103839 -11.861616 6.993967 -18.227418 -11.338158 0.058828 2.619276 -43.150447 17.417203 11.350116 -2.318608 4.298944 0.446769 8.087307 -0.872378 -0.413611 17.133840 -6.636251 -3.687515 20.253551 -6.370489 9.434308 -1.696086 -7.323599 8.103843 
0.000000 0.000000 52.000000 0.000000 -0.000000 0.000072 -8.842944 -0.000088 0.000007 10.961080 0.000007 0.000018 2.118162 -0.000001 0.000003 4.876472 -0.000002 0.000004 -2.163954 0.000002 -0.000003 -6.986525 0.000003 -0.000007 -13.013541 0.000008 -0.000015 14.417327 -0.000016 -0.000007 -11.537027 -0.000053 0.000048 0.000010 0.000000 -0.000000 0.000020 -0.000000 -0.000000 -0.000004 0.000007 -0.000015 0.000112 -0.000069 0.000010 0.000001 -0.000005 -0.000003 0.000010 0.000005 0.000011 0.000001 0.000000 -0.000003 0.000110 0.000069 -0.000007 0.000002 -0.000002 0.000002 0.000003 -0.000007 -0.000001 -0.000000 -0.000000 -0.000000 -0.000878 4.114583 11.904650 26.136743 -13.607928 -29.332435 -23.413243 4.857625 -5.359929 -64.573250 -13.413033 -14.628607 4.814246 45.237873 32.496814 0.108392 -0.103822 0.046717 31.239885 13.715134 -10.715220 -21.103495 -3.971334 -2.962972 30.256522 6.344420 -6.448664 -32.343282 -14.390351 -8.157531 20.872339 -11.244809 -8.185808 -18.722430 -18.085390 -5.094119 18.635515 -29.682660 -0.393823 0.555238 0.804617 0.101800 -0.000907 -4.114893 -11.904634 1.174982 14.107489 33.206249 -12.983116 -2.414556 3.207785 -53.408855 5.511502 0.401868 4.813893 -45.237815 -32.497121 0.108396 0.103819 -0.046711 31.239929 -13.715162 10.714979 -21.103471 3.971280 2.963137 30.256570 -6.344445 6.448430 -32.343309 14.390252 8.157748 20.872416 11.244832 8.185625 -18.722465 18.085330 5.094264 18.635550 29.682660 0.393681 0.555248 -0.804611 -0.101804 -12.821442 -0.000008 0.000031 -8.690513 -1.231629 3.950023 3.161190 -0.094087 6.906286 4.342274 0.211174 -4.986125 9.929245 0.155903 -8.800337 11.171296 -0.659984 -13.999298 7.586498 -2.233522 -19.604714 5.550222 -3.327186 -18.537026 0.316509 -1.087826 -13.264620 -1.993396 1.870467 -10.063435 -27.408832 -10.892108 11.838816 -10.432369 -0.073223 -2.410097 -27.253807 -19.732186 -8.454190 -2.318591 -4.298942 -0.446771 8.087298 0.872400 0.413577 17.133832 6.636275 3.687459 20.253541 6.370514 -9.434374 -1.696108 7.323588 -8.103839 -11.861616 6.993967 -18.227418 -11.338158 0.058828 2.619276 -43.150447 17.417203 11.350116 -2.318608 4.298944 0.446769 8.087307 -0.872378 -0.413611 17.133840 -6.636251 -3.687515 20.253551 -6.370489 9.434308 -1.696086 -7.323599 8.103843 
0.000000 1.454560 47.042854 -9.443175 -0.000025 0.000070 -5.580337 -0.006254 0.291310 8.813272 -0.033322 -0.294526 8.174877 -0.354160 0.182955 12.109144 -0.512136 0.249194 1.362312 -0.538056 0.080652 -9.635561 -0.678662 -3.802054 -14.705073 1.690432 -0.196096 7.183757 2.209021 3.812395 -10.626618 -0.051659 0.039689 1.206127 0.000002 -0.000005 0.000021 -0.000000 -0.000000 -0.000005 0.000007 -0.000018 -0.011140 -0.013926 0.209593 0.000003 -0.000005 -0.000003 0.000012 0.000005 0.000008 0.000001 0.000001 -0.000005 0.000110 0.000068 -0.000009 0.633290 -1.292040 -0.155771 0.000005 -0.000007 -0.000003 -0.000001 0.000000 0.000000 -0.004236 6.163797 11.097854 17.370342 -14.487060 -28.052763 -34.432203 7.828735 -7.127655 -53.773601 -14.649962 -13.188493 4.814244 45.237876 32.496814 0.108388 -0.103822 0.046717 31.239885 13.715137 -10.715220 -21.103486 -3.971332 -2.962969 30.256522 6.344420 -6.448663 -32.343282 -14.390355 -8.157525 20.872334 -11.244812 -8.185807 -18.722430 -18.085393 -5.094123 18.635510 -29.682657 -0.393831 0.555236 0.804619 0.101796 -0.000308 -4.111454 -7.508569 -3.895925 18.170253 24.161516 -26.952521 -5.773548 5.988542 -43.094471 5.215839 -0.889757 4.813885 -45.237815 -32.497128 0.108393 0.103815 -0.046710 31.239933 -13.715164 10.714980 -21.103464 3.971279 2.963135 30.256570 -6.344445 6.448430 -32.343306 14.390251 8.157747 20.872423 11.244830 8.185627 -18.722464 18.085337 5.094267 18.635551 29.682657 0.393683 0.555253 -0.804614 -0.101811 -7.702525 -0.674960 2.817820 -3.535579 -1.547861 6.862750 7.775518 0.971537 0.727090 3.621120 -0.415546 -9.423512 5.830275 -0.116500 -9.117617 7.017665 -0.031748 -10.722291 5.982780 -1.243874 -15.659233 6.698107 -2.767120 -16.346548 2.497818 -1.381645 -12.865849 -0.358208 0.969088 -10.338284 -38.433813 -15.321125 5.127721 15.742713 0.931435 3.517481 -37.024376 -16.796777 -10.950904 -2.318591 -4.298939 -0.446776 8.087297 0.872400 0.413574 17.133833 6.636279 3.687461 20.253545 6.370514 -9.434376 -1.696108 7.323589 -8.103838 -20.551681 12.601839 -12.628556 16.637615 -1.013134 -3.708754 -55.958125 14.627832 13.014724 -2.318607 4.298954 0.446770 8.087303 -0.872373 -0.413611 17.133839 -6.636249 -3.687513 20.253553 -6.370486 9.434311 -1.696088 -7.323597 8.103846 
0.000000 2.930700 41.686008 -19.448579 -0.000051 0.000069 -2.170063 0.004705 0.589296 6.416476 -0.062036 -0.589289 14.897732 -0.691521 0.454521 20.091012 -0.999065 0.630875 5.134579 -1.126745 0.237816 -12.732033 -1.220922 -7.924861 -16.732811 3.574429 -0.502779 -1.253399 2.865360 7.546622 -10.224894 -0.166278 0.131196 2.304620 0.000000 -0.000003 0.000021 0.000000 -0.000000 -0.000006 0.000007 -0.000017 -0.023778 -0.029614 0.446134 0.000003 -0.000005 0.000000 0.000009 0.000005 0.000009 0.000001 0.000000 -0.000004 0.000109 0.000069 -0.000010 1.585321 -3.143281 -0.335890 0.000004 -0.000006 -0.000003 0.000000 0.000000 -0.000001 -0.000459 8.212953 10.292968 2.903399 -13.469124 -28.719849 -43.030567 10.348787 -8.096659 -40.325174 -15.403263 -9.702880 4.814257 45.237886 32.496817 0.108389 -0.103822 0.046718 31.239885 13.715133 -10.715215 -21.103490 -3.971330 -2.962967 30.256522 6.344418 -6.448665 -32.343278 -14.390351 -8.157528 20.872343 -11.244810 -8.185807 -18.722433 -18.085393 -5.094118 18.635521 -29.682657 -0.393829 0.555228 0.804617 0.101800 0.000063 -4.107953 -3.112476 -14.093241 22.403977 15.542051 -37.596667 -8.739917 7.528443 -31.576661 2.596217 -4.023495 4.813894 -45.237818 -32.497118 0.108385 0.103817 -0.046710 31.239933 -13.715162 10.714982 -21.103468 3.971278 2.963134 30.256570 -6.344445 6.448429 -32.343302 14.390252 8.157747 20.872423 11.244832 8.185625 -18.722472 18.085337 5.094264 18.635553 29.682653 0.393680 0.555244 -0.804608 -0.101808 -2.562738 -1.093368 5.678475 1.623603 -1.607454 9.785827 10.601154 1.339465 -4.312596 3.184453 -0.915781 -13.602936 3.065299 -0.434798 -10.363739 3.711333 0.157559 -8.782485 3.988569 -0.611526 -12.247704 6.758725 -2.178315 -13.420801 3.861337 -1.419369 -11.129290 1.239772 0.360082 -9.657965 -47.390106 -17.977261 -1.972430 35.384720 3.381513 7.361386 -42.134716 -14.033236 -12.525294 -2.318593 -4.298942 -0.446776 8.087297 0.872406 0.413575 17.133830 6.636277 3.687459 20.253539 6.370515 -9.434376 -1.696108 7.323589 -8.103840 -26.065523 15.822318 -6.636158 37.492175 -3.720182 -7.720454 -64.795184 12.601733 13.410201 -2.318612 4.298945 0.446770 8.087305 -0.872377 -0.413609 17.133837 -6.636256 -3.687510 20.253548 -6.370488 9.434313 -1.696088 -7.323602 8.103844 
